<svg xmlns="http://www.w3.org/2000/svg" width="152.25" height="56.25" viewBox="0 0 152.25 56.25">
  <defs>
    <style>
      .cls-1 {
        fill: #0094de;
        fill-rule: evenodd;
      }
    </style>
  </defs>
  <path class="cls-1" d="M411.59,79.407a3.679,3.679,0,0,0-3.214-1.676c-0.293-.028-0.661-0.052-1.107-0.073s-0.991-.046-1.638-0.073-1.8-.07-3.475-0.126q-1.817-.063-2.192-0.084h-0.855a3.94,3.94,0,0,1-1.566-.251,1.026,1.026,0,0,1-.563-1.047,1.287,1.287,0,0,1,.177-0.712,1.114,1.114,0,0,1,.47-0.409,2.084,2.084,0,0,1,.626-0.178A6.089,6.089,0,0,1,399,74.735h12.648V72.654H392.871a6.586,6.586,0,0,0-.837,3.632,5.6,5.6,0,0,0,.709,3.121,4.088,4.088,0,0,0,3.319,1.529c0.306,0.028.674,0.053,1.106,0.073s0.89,0.042,1.377.063,1.691,0.066,3.611.136q1.836,0.063,2.233.084,0.648,0,1.1.031a3.594,3.594,0,0,1,.866.168,1.478,1.478,0,0,1,.678.44,1.2,1.2,0,0,1,.261.807,1.232,1.232,0,0,1-.188.712,1.15,1.15,0,0,1-.5.408,2.353,2.353,0,0,1-.678.178,7.079,7.079,0,0,1-.8.042H392.472v1.868h19.007a6.12,6.12,0,0,0,.779-3.355,6.828,6.828,0,0,0-.668-3.184M385.4,75.657h0.084V85.947h4.738V72.654h-8.669l-3.854,8.2-0.063-.084-3.83-8.115H365.11V85.947h4.758V75.657h0.063l5.2,10.289h5.143ZM350.02,83.706V80.982H362.1V77.651H350.02V74.886H362.9V72.654H344.906V85.947H362.9V83.706H350.02Zm-13.483-8.719h6.971V72.654H324.223v2.333h7.2v10.96h5.113V74.987Zm-13.357,4.42a3.679,3.679,0,0,0-3.215-1.676q-0.438-.042-1.106-0.073t-1.638-.073q-0.971-.042-3.475-0.126-1.816-.063-2.192-0.084H310.7a3.94,3.94,0,0,1-1.566-.251,1.026,1.026,0,0,1-.563-1.047,1.287,1.287,0,0,1,.177-0.712,1.114,1.114,0,0,1,.47-0.409,2.084,2.084,0,0,1,.626-0.178,6.077,6.077,0,0,1,.751-0.042h12.648V72.654H304.461a6.585,6.585,0,0,0-.838,3.632,5.594,5.594,0,0,0,.71,3.121,4.088,4.088,0,0,0,3.319,1.529c0.306,0.028.674,0.053,1.106,0.073s0.89,0.042,1.377.063,1.691,0.066,3.611.136q1.836,0.063,2.233.084c0.431,0,.8.01,1.1,0.031a3.594,3.594,0,0,1,.866.168,1.478,1.478,0,0,1,.678.44,1.2,1.2,0,0,1,.261.807,1.232,1.232,0,0,1-.188.712,1.15,1.15,0,0,1-.5.408,2.353,2.353,0,0,1-.678.178,7.079,7.079,0,0,1-.8.042H304.062v1.868h19.007a6.121,6.121,0,0,0,.778-3.355A6.828,6.828,0,0,0,323.18,79.407Zm-26.4-6.754-4.16,5.2-4.16-5.2h-6.095l7.667,9.267v4.025h5.135V81.921l7.7-9.267h-6.089Zm-16.328,6.754a3.676,3.676,0,0,0-3.214-1.676q-0.438-.042-1.106-0.073t-1.638-.073q-0.97-.042-3.475-0.126-1.817-.063-2.192-0.084h-0.855a3.94,3.94,0,0,1-1.566-.251,1.025,1.025,0,0,1-.563-1.047,1.287,1.287,0,0,1,.177-0.712,1.108,1.108,0,0,1,.47-0.409,2.076,2.076,0,0,1,.626-0.178,6.077,6.077,0,0,1,.751-0.042h12.648V72.651H266.067a3.879,3.879,0,0,0-3.278,1.286A6.289,6.289,0,0,0,261.8,77.8c0,0.2,0,.4.015,0.582v1.288a4.265,4.265,0,0,0,3.111,1.269q0.459,0.042,1.106.073t1.378,0.063q0.731,0.031,3.611.136,1.836,0.063,2.233.084,0.647,0,1.1.031a3.6,3.6,0,0,1,.866.168,1.478,1.478,0,0,1,.678.44,1.2,1.2,0,0,1,.261.807,1.232,1.232,0,0,1-.188.712,1.15,1.15,0,0,1-.5.408,2.362,2.362,0,0,1-.678.178,7.085,7.085,0,0,1-.8.042H261.339v1.868h19.007a6.121,6.121,0,0,0,.778-3.355A6.816,6.816,0,0,0,280.456,79.407ZM390.649,54.322q5.336,0,7.552-2.776a2.934,2.934,0,0,0,.479-0.678v-5.52q0.022-.546.022-1.122a15.129,15.129,0,0,0-.667-4.863,6.321,6.321,0,0,0-2.06-2.934,8.75,8.75,0,0,0-3.55-1.556,25.686,25.686,0,0,0-5.375-.473H364.01V64.206h9.612v-23.2h14.32a3.783,3.783,0,0,1,2.471.906,2.963,2.963,0,0,1,.04,4.706,4.16,4.16,0,0,1-2.629.886H374.956l7.572,6.813h8.121Zm-63.99-.59h21.5V46.564h-21.5v-5.71h22.717V34.466H317.047v29.74h9.612V53.731ZM270.007,42.468a1.664,1.664,0,0,1,.647-1.378,3.564,3.564,0,0,1,2.177-.512h17.577a4.5,4.5,0,0,1,2.256.394,1.652,1.652,0,0,1,.608,1.5V54.991a1.458,1.458,0,0,1-.726,1.241,4.083,4.083,0,0,1-2.256.492H272.831a4.577,4.577,0,0,1-2.236-.374,1.484,1.484,0,0,1-.588-1.359V42.468ZM263.089,61.49c0.092,0.093.187,0.184,0.287,0.274a8.109,8.109,0,0,0,2.276,1.516,11.865,11.865,0,0,0,3.138.787,46.159,46.159,0,0,0,4.669.335q2.747,0.079,8.043.079t8.082-.079a45.7,45.7,0,0,0,4.688-.335,12.759,12.759,0,0,0,3.178-.787,7.361,7.361,0,0,0,2.3-1.516,5.538,5.538,0,0,0,1.609-2.363,10.207,10.207,0,0,0,.432-3.19V41.129A9.647,9.647,0,0,0,301.354,38a5.616,5.616,0,0,0-1.609-2.3,7.625,7.625,0,0,0-1.679-1.285h-7.828q-2.577-.037-6.932-0.037-5.557,0-8.218.06a45.481,45.481,0,0,0-4.559.3,11.29,11.29,0,0,0-3.15.8,7.365,7.365,0,0,0-2.27,1.59,5.669,5.669,0,0,0-1.6,2.326,9.831,9.831,0,0,0-.43,3.161Zm149.06,2.716v-8.27H403.2v8.27h8.945Zm-50.925,0v-8.27h-8.945v8.27h8.945Zm-47.119,0v-8.27H305.16v8.27h8.945ZM260,55.235a10.207,10.207,0,0,0,.432,3.19,5.526,5.526,0,0,0,1.608,2.363l0.045,0.016L262.07,41.786a9.892,9.892,0,0,1,.428-3.161,5.67,5.67,0,0,1,1.6-2.326,7.316,7.316,0,0,1,2.256-1.59,11.178,11.178,0,0,1,3.132-.8,44.861,44.861,0,0,1,4.531-.3q2.646-.06,8.169-0.059,4.33,0,6.89.037H297a7.105,7.105,0,0,0-.85-0.451,11.094,11.094,0,0,0-3.1-.788,44.61,44.61,0,0,0-4.531-.3Q285.855,32,280.284,32t-8.239.059q-2.668.059-4.571,0.3a11.441,11.441,0,0,0-3.158.788,7.406,7.406,0,0,0-2.276,1.575,5.605,5.605,0,0,0-1.608,2.3A9.647,9.647,0,0,0,260,40.152V55.235Zm139.569-5.214q1.782-2.823,1.782-8.113a14.167,14.167,0,0,0-.684-4.772,6.444,6.444,0,0,0-2.113-2.988,9.01,9.01,0,0,0-3.641-1.584,26.517,26.517,0,0,0-5.513-.481H364.01v1.436h23.63a26.523,26.523,0,0,1,5.513.481,8.963,8.963,0,0,1,3.642,1.5,6.447,6.447,0,0,1,2.112,2.988,14.167,14.167,0,0,1,.684,4.772q0,0.587-.022,1.143v5.621ZM317.074,33.577h32.3v-1.47H317.047Zm75.4,52.989v1.694h14.521a4.982,4.982,0,0,0,3.712-1.194,3.165,3.165,0,0,0,.393-0.5H392.472Zm-17.087,0,0.77,1.694h3.1l0.76-1.694h-4.629Zm-10.275,0v1.694h4.758V86.565H365.11Zm20.37,0v1.694h4.738V86.565H385.48Zm-40.574,0v1.694H362.9V86.565H344.906Zm-13.482,0v1.694h5.113V86.565h-5.113Zm-27.362,0v1.694h14.511a4.974,4.974,0,0,0,3.709-1.194,3.108,3.108,0,0,0,.393-0.5H304.062Zm-14.026,0v1.694h5.135V86.565h-5.135Zm-28.7,0v1.694h14.526a4.987,4.987,0,0,0,3.714-1.194,3.224,3.224,0,0,0,.393-0.5H261.339ZM411.656,72.054v-1.5H264.673a4.013,4.013,0,0,0-3.354,1.286,6.177,6.177,0,0,0-1.011,3.859,5.531,5.531,0,0,0,.731,3.142,3.172,3.172,0,0,0,.273.326V77.782C261.3,77.595,261.3,77.4,261.3,77.2a6.182,6.182,0,0,1,1.011-3.859,4.016,4.016,0,0,1,3.355-1.287H411.656Z" transform="translate(-260 -32)"/>
</svg>
