<svg xmlns="http://www.w3.org/2000/svg" width="132.5" height="18.84" viewBox="0 0 132.5 18.84">
  <defs>
    <style>
      .cls-1 {
        fill: #0094de;
        fill-rule: evenodd;
      }
    </style>
  </defs>
  <path id="Shape_1_copy" data-name="Shape 1 copy" class="cls-1" d="M434.385,3480.8a2,2,0,0,1-1.327-1.29c-0.576-1.58-.745-8.2.362-9.51a2.153,2.153,0,0,1,1.445-.77c2.982-.32,12.2-0.27,13.259.11a2.066,2.066,0,0,1,1.3,1.26c0.629,1.63.65,7.59-.082,9.16a2.047,2.047,0,0,1-.936.95C447.3,3481.29,435.848,3481.28,434.385,3480.8Zm4.737-3.1c1.793-.93,3.57-1.86,5.37-2.79-1.8-.94-3.581-1.87-5.37-2.81v5.6Zm-114.29-8.48c0.553-.02,1.105-0.01,1.659-0.01h0.229v-2.88c-0.3-.03-0.6-0.07-0.913-0.08-0.568-.03-1.136-0.06-1.7-0.04a4.132,4.132,0,0,0-2.4.74,3.587,3.587,0,0,0-1.443,2.4,8.361,8.361,0,0,0-.1,1.24c-0.015.65,0,1.29,0,1.94v0.24H317.4v3.22h2.736v8.09h3.343V3476h2.727c0.139-1.07.275-2.13,0.418-3.23h-3.168s0.009-1.6.027-2.29A1.19,1.19,0,0,1,324.832,3469.22Zm62.353,15.34h-10.66a3.967,3.967,0,0,1-4-3.92v-11a3.967,3.967,0,0,1,4-3.92h10.66a3.969,3.969,0,0,1,4,3.92v11a3.969,3.969,0,0,1-4,3.92m-10.66-17.22a2.35,2.35,0,0,0-2.393,2.3v11a2.35,2.35,0,0,0,2.393,2.3h10.66a2.349,2.349,0,0,0,2.392-2.3v-11a2.349,2.349,0,0,0-2.392-2.3h-10.66Zm5.33,12.69a4.89,4.89,0,1,1,4.88-4.89,4.895,4.895,0,0,1-4.88,4.89m0-8.16a3.27,3.27,0,1,0,3.269,3.27A3.268,3.268,0,0,0,381.855,3471.87Zm6.378-1.86a1.141,1.141,0,1,1-1.141-1.15,1.14,1.14,0,0,1,1.141,1.15" transform="translate(-317.406 -3465.72)"/>
</svg>
