<svg xmlns="http://www.w3.org/2000/svg" width="17.063" height="19.54" viewBox="0 0 17.063 19.54">
  <defs>
    <style>
      .cls-1 {
        fill: #0094de;
        fill-rule: evenodd;
      }
    </style>
  </defs>
  <path class="cls-1" d="M269.089,3285.15a0.834,0.834,0,0,1-.539-0.19c-0.817-.67-7.984-6.72-7.984-11.09a8.528,8.528,0,0,1,17.046,0c0,4.37-7.165,10.42-7.984,11.09a0.83,0.83,0,0,1-.539.19h0Zm0-17.92a6.762,6.762,0,0,0-6.86,6.64c0,2.83,4.538,7.38,6.86,9.41,2.322-2.03,6.861-6.58,6.861-9.41a6.761,6.761,0,0,0-6.861-6.64h0Zm0,10.67a4.027,4.027,0,1,1,4.157-4.03,4.1,4.1,0,0,1-4.157,4.03h0Zm0-6.44a2.416,2.416,0,1,0,2.494,2.41,2.455,2.455,0,0,0-2.494-2.41h0Z" transform="translate(-260.562 -3265.62)"/>
</svg>
