<svg xmlns="http://www.w3.org/2000/svg" width="20.813" height="46.219" viewBox="0 0 20.813 46.219">
  <defs>
    <style>
      .cls-1 {
        fill: #0094de;
        fill-rule: evenodd;
      }
    </style>
  </defs>
  <path class="cls-1" d="M798.384,713.147v8.125a6.345,6.345,0,0,0,5.6,6.3v21.856a0.815,0.815,0,0,0,.233.57l2.732,2.788a0.815,0.815,0,0,0,1,.128l4.489-2.7a0.815,0.815,0,0,0,.156-1.274l-1.382-1.381a0.815,0.815,0,0,1,0-1.152l1.736-1.734a0.815,0.815,0,0,0,0-1.152l-1.559-1.559a0.815,0.815,0,0,1,0-1.152l1.9-1.9a0.818,0.818,0,0,0,.238-0.576V727.579a6.344,6.344,0,0,0,5.67-6.307v-8.125a6.344,6.344,0,0,0-6.345-6.343h-8.127A6.344,6.344,0,0,0,798.384,713.147Zm15.922-.421a0.986,0.986,0,1,1,0,1.971H803.143a0.986,0.986,0,1,1,0-1.971h11.163Z" transform="translate(-798.375 -706.812)"/>
</svg>
