<svg xmlns="http://www.w3.org/2000/svg" width="20.72" height="21.719" viewBox="0 0 20.72 21.719">
  <defs>
    <style>
      .cls-1 {
        fill: #0094de;
        fill-rule: evenodd;
      }
    </style>
  </defs>
  <path class="cls-1" d="M1487.86,71V65.486l0.29,0.289,1.41-1.4-7.7-7.609-7.71,7.609,1.41,1.4,0.3-.289V71h12Zm-2-7.49v5.515h-8V63.511l4-3.95Zm-2,3.54V65.077h-2v1.975h2Zm-3-12.835v1.974h2V51.255a1.991,1.991,0,0,0-2-1.975h-10a1.985,1.985,0,0,0-2,1.975V69.026a1.985,1.985,0,0,0,2,1.975h3V69.026h-3V67.052h2V65.077h-2V54.217h10Zm0-2.962v0.987h-10V51.255h10Z" transform="translate(-1468.84 -49.281)"/>
</svg>
